<?xml version="1.0" encoding="UTF-8"?>
<svg xmlns="http://www.w3.org/2000/svg" version="1.1" viewBox="0 0 288 288">
  <!-- Generator: Adobe Illustrator 29.1.0, SVG Export Plug-In . SVG Version: 2.1.0 Build 142)  -->
  <defs>
    <style>
      .st0 {
        fill: #231f20;
      }

      .st1 {
        fill: #fff;
      }
    </style>
  </defs>
  <g id="Layer_2">
    <circle class="st1" cx="144" cy="144" r="138"/>
  </g>
  <g id="Layer_1">
    <g>
      <path class="st0" d="M44.8,228.2l14.2-137.3c.6-5.3.9-9.3.9-12.2,0-4.7-1.3-8.3-4-10.7-2.7-2.4-7.5-3.7-14.5-3.9l1.3-4.5h61.7l-1.3,4.5c-8.3,0-13.9,1.4-17,4.4-3,3-5.1,10.5-6.3,22.3l-9.1,88.9,62.6-96.6c0-1.6.1-3,.1-4.1,0-4.5-1.3-8-4-10.5-2.7-2.4-8.4-3.9-17.3-4.5l1-4.5h66.7l-1.3,4.5c-7.7,0-12.9.7-15.6,1.9-1.9.9-3.6,2.3-4.9,4.3-1.3,2-2.4,5.4-3.2,10.1-.2,1.4-1.2,10.8-3,28.2-1.7,17.4-4.4,41.1-7.8,71.1l52.1-79.2c5.7-8.7,9.2-14.7,10.7-18.2,1.5-3.5,2.2-6.4,2.2-8.9s-1-4.3-2.9-6c-1.9-1.7-5.3-2.9-10-3.3l1-4.5h48.8l-1.2,4.5c-4.3.3-8.1,1.4-11.4,3.2-3.3,1.8-7.3,5.2-11.8,10.2-2.6,2.9-7.9,10.6-16,23.1l-82.8,127.6h-4.5l13.4-127.6-82.8,127.6h-4.1Z"/>
      <path class="st0" d="M194.8,175.3l-1.2,4.3h-6.9c.5,1.5.8,2.9.8,4.2,0,3.6-1.5,6.9-4.6,9.7-3.1,2.8-7.4,4.4-12.8,4.7-2.9.9-5.1,1.9-6.6,3.1-.6.4-.8.9-.8,1.4s.2,1.1.7,1.5,1.8.9,3.8,1.4l8,1.9c4.4,1.1,7.4,2.3,8.8,3.7,1.4,1.5,2.1,3.1,2.1,5.1s-.8,4.3-2.5,6.2c-1.7,1.9-4.1,3.3-7.3,4.4-3.2,1.1-6.8,1.6-10.7,1.6s-6.5-.4-9.4-1.2c-2.8-.8-4.8-1.9-6-3.3s-1.8-2.8-1.8-4.3.4-2.4,1.2-3.7,1.8-2.3,3-3.2c.7-.5,2.9-1.8,6.3-3.7-1.3-1-1.9-2.1-1.9-3.3s.6-2.3,1.7-3.5,3.5-2.6,7.1-4.1c-3-.6-5.4-1.8-7.2-3.8-1.8-2-2.7-4.1-2.7-6.5,0-3.9,1.7-7.4,5.2-10.5,3.4-3.1,8-4.6,13.7-4.6s3.8.2,5.1.6c1.3.4,2.6,1.1,3.9,1.9h11.2ZM160.5,210.2c-2.2,1-3.9,2.3-5.1,3.9-1.1,1.6-1.7,3.2-1.7,4.7s.8,3.3,2.5,4.5c2.4,1.7,5.9,2.6,10.4,2.6s7.3-.7,10.1-2c2.8-1.3,4.2-3.1,4.2-5.2s-.5-2.1-1.6-3.1c-1-1-3-1.8-6-2.4-1.6-.3-5.9-1.4-12.9-3.1ZM180.4,181.8c0-2.2-.6-4-1.8-5.2-1.2-1.3-2.8-1.9-4.8-1.9-3.1,0-5.7,1.6-7.7,4.7s-3,6.4-3,9.8.6,3.9,1.9,5.2c1.3,1.4,2.9,2,4.7,2s2.9-.4,4.2-1.2c1.4-.8,2.5-1.9,3.5-3.3.9-1.4,1.7-3.2,2.2-5.4.6-2.2.8-3.8.8-4.7Z"/>
      <path class="st0" d="M215.5,124.2l-8.2,28.6c2.7-2.8,5-4.7,6.9-5.7,2-1,4-1.5,6.2-1.5s5.5,1,7.5,3c1.9,2,2.9,4.8,2.9,8.2s-1.3,8.9-3.8,13.3c-2.5,4.4-5.7,7.8-9.6,10.3-3.8,2.5-7.6,3.7-11.4,3.7s-8.5-1.6-12.8-4.7l12.6-43.4c1-3.3,1.5-5.3,1.5-5.9s-.2-1.3-.7-1.6c-.6-.5-1.6-.7-2.8-.7s-1.5,0-2.7.3v-1.6l14.3-2.3ZM199.5,179.9c2.8,1.5,5.2,2.3,7.3,2.3s5-.9,7.6-2.7c2.6-1.8,4.9-4.8,6.8-9,1.9-4.2,2.9-8.5,2.9-12.8s-.6-4.5-1.9-6c-1.3-1.4-2.7-2.2-4.5-2.2-2.6,0-5.1,1-7.5,3.1-2.5,2.1-4.2,4.9-5.3,8.6l-5.4,18.6Z"/>
    </g>
  </g>
</svg>